<svg width="618" height="481" viewBox="0 0 618 481" fill="none" xmlns="http://www.w3.org/2000/svg">
<g opacity="0.5">
<path opacity="0.5" d="M618 80.4315L618 481H63.6516C64.6153 440.884 71.747 400.171 93.7205 367.403C112.417 339.6 140.559 319.74 171.013 306.633C201.275 293.724 233.85 287.17 266.232 282.007C293.024 277.836 320.973 274.063 343.91 259.168C375.714 238.514 391.905 200.384 412.529 168.012C435.659 131.669 467.077 99.6953 505.82 82.4174C541.093 66.5297 583.112 64.3452 618 80.4315Z" fill="white"/>
</g>
<path opacity="0.5" d="M417.462 66.0885C414.617 48.118 426.449 31.1737 443.891 28.2424C461.332 25.311 477.778 37.5026 480.623 55.4731C483.468 73.4436 471.635 90.3878 454.194 93.3192C436.752 96.2505 420.307 84.0589 417.462 66.0885Z" fill="white"/>
<path opacity="0.5" d="M507.94 54.8126C498.466 54.8126 490.785 46.8992 490.785 37.1375C490.785 27.3758 498.466 19.4624 507.94 19.4624C517.414 19.4624 525.095 27.3758 525.095 37.1375C525.095 46.8992 517.414 54.8126 507.94 54.8126Z" fill="white"/>
<path opacity="0.5" d="M36.3814 463.35C26.9071 463.35 19.2267 455.437 19.2267 445.675C19.2267 435.913 26.9071 428 36.3814 428C45.8557 428 53.5361 435.913 53.5361 445.675C53.5361 455.437 45.8557 463.35 36.3814 463.35Z" fill="white"/>
<path opacity="0.5" d="M472.474 9.73122C472.474 15.0933 476.714 19.4624 481.919 19.4624C487.123 19.4624 491.363 15.0933 491.363 9.73122C491.363 4.36912 487.123 0 481.919 0C476.714 0 472.474 4.36912 472.474 9.73122Z" fill="white"/>
<path opacity="0.5" d="M0.817687 418.731C0.817687 424.093 5.05819 428.462 10.2625 428.462C15.4667 428.462 19.7073 424.093 19.7073 418.731C19.7073 413.369 15.4667 409 10.2625 409C5.05819 409 0.817687 413.369 0.817687 418.731Z" fill="white"/>
</svg>
